<svg xmlns:svg="http://www.w3.org/2000/svg" xmlns="http://www.w3.org/2000/svg" width="16" height="16" viewBox="0 0 16 16" fill="currentColor" focusable="false"><path fill-rule="evenodd" d="M10,11.9962527 L10,6.99918242 L8.99511719,6.99918242 L8.99511719,11.9962527 L10,11.9962527 Z M6.99902344,6.99918242 L6.99902344,11.9962527 L7.99707031,11.9962527 L7.99707031,6.99918242 L6.99902344,6.99918242 Z M5.99414062,6.99918242 L4.99609375,6.99918242 L4.99609375,11.9962527 L5.99414062,11.9962527 L5.99414062,6.99918242 Z M8.99511719,4.99625273 L8.99511719,3.99820585 L5.99414062,3.99820585 L5.99414062,4.99625273 L8.99511719,4.99625273 Z M11.9960938,6.99918242 L10.9980469,6.99918242 L10.9980469,13.0011355 C10.9980469,13.3019183 10.906902,13.5434523 10.7246094,13.7257449 C10.5423168,13.9080375 10.3007828,13.9991824 10,13.9991824 L4.99609375,13.9991824 C4.73632683,13.9991824 4.50390728,13.9057589 4.29882812,13.718909 C4.09830629,13.5320591 3.99804688,13.2928037 3.99804688,13.0011355 L3.99804688,6.99918242 L3,6.99918242 L3,6.00113554 C3,5.71858204 3.10025941,5.48160525 3.30078125,5.29019804 C3.50130309,5.09879083 3.73372264,5.00081004 3.99804688,4.99625273 L4.99609375,4.99625273 L4.99609375,3.99820585 C5.00065106,3.71109504 5.1031891,3.47183962 5.30371094,3.28043242 C5.50423277,3.08902521 5.7343737,2.99560166 5.99414062,3.00015898 L8.99511719,3.00015898 C9.29589994,3.00015898 9.53743398,3.0913039 9.71972656,3.27359648 C9.90201914,3.45588906 9.99544269,3.6974231 10,3.99820585 L10,4.99625273 L10.9980469,4.99625273 C11.2988296,5.00081004 11.5403637,5.09423359 11.7226562,5.27652617 C11.9049488,5.45881874 11.9960938,5.70035279 11.9960938,6.00113554 L11.9960938,6.99918242 Z"></path></svg>