<svg xmlns:svg="http://www.w3.org/2000/svg" xmlns="http://www.w3.org/2000/svg" width="16" height="16" viewBox="0 0.5 16.5 16" fill="currentColor" focusable="false"><path fill-rule="evenodd" d="M6.8,5 C6.8,4.3372583 7.33263779,3.8 8,3.8 C8.6627417,3.8 9.2,4.33263779 9.2,5 C9.2,5.6627417 8.66736221,6.2 8,6.2 C7.3372583,6.2 6.8,5.66736221 6.8,5 Z M6.79999995,9 C6.79999995,8.33725827 7.33263776,7.79999995 8,7.79999995 C8.66274173,7.79999995 9.20000005,8.33263776 9.20000005,9 C9.20000005,9.66274173 8.66736224,10.2 8,10.2 C7.33725827,10.2 6.79999995,9.66736224 6.79999995,9 Z M6.8,13 C6.8,12.3372583 7.33263779,11.8 8,11.8 C8.6627417,11.8 9.2,12.3326378 9.2,13 C9.2,13.6627417 8.66736221,14.2 8,14.2 C7.3372583,14.2 6.8,13.6673622 6.8,13 Z"></path></svg>